<svg width="15" height="8" viewBox="0 0 15 8" fill="none" xmlns="http://www.w3.org/2000/svg">
<path d="M13.5454 2H1.54541C1.28019 2 1.02584 1.89464 0.838304 1.70711C0.650767 1.51957 0.54541 1.26522 0.54541 1C0.54541 0.734784 0.650767 0.48043 0.838304 0.292893C1.02584 0.105357 1.28019 0 1.54541 0H13.5454C13.8106 0 14.065 0.105357 14.2525 0.292893C14.4401 0.48043 14.5454 0.734784 14.5454 1C14.5454 1.26522 14.4401 1.51957 14.2525 1.70711C14.065 1.89464 13.8106 2 13.5454 2ZM13.5454 8H1.54541C1.28019 8 1.02584 7.89464 0.838304 7.70711C0.650767 7.51957 0.54541 7.26522 0.54541 7C0.54541 6.73478 0.650767 6.48043 0.838304 6.29289C1.02584 6.10536 1.28019 6 1.54541 6H13.5454C13.8106 6 14.065 6.10536 14.2525 6.29289C14.4401 6.48043 14.5454 6.73478 14.5454 7C14.5454 7.26522 14.4401 7.51957 14.2525 7.70711C14.065 7.89464 13.8106 8 13.5454 8Z" fill="#000000"/>
</svg>
