<svg width="15" height="15" viewBox="0 0 15 15" fill="none" xmlns="http://www.w3.org/2000/svg">
<path d="M13.5 8.43848H8.5V13.4385C8.5 13.7037 8.39464 13.958 8.20711 14.1456C8.01957 14.3331 7.76522 14.4385 7.5 14.4385C7.23478 14.4385 6.98043 14.3331 6.79289 14.1456C6.60536 13.958 6.5 13.7037 6.5 13.4385V8.43848H1.5C1.23478 8.43848 0.98043 8.33312 0.792893 8.14558C0.605357 7.95805 0.5 7.70369 0.5 7.43848C0.5 7.17326 0.605357 6.91891 0.792893 6.73137C0.98043 6.54383 1.23478 6.43848 1.5 6.43848H6.5V1.43848C6.5 1.17326 6.60536 0.918906 6.79289 0.731369C6.98043 0.543833 7.23478 0.438477 7.5 0.438477C7.76522 0.438477 8.01957 0.543833 8.20711 0.731369C8.39464 0.918906 8.5 1.17326 8.5 1.43848V6.43848H13.5C13.7652 6.43848 14.0196 6.54383 14.2071 6.73137C14.3946 6.91891 14.5 7.17326 14.5 7.43848C14.5 7.70369 14.3946 7.95805 14.2071 8.14558C14.0196 8.33312 13.7652 8.43848 13.5 8.43848Z" fill="#000000"/>
</svg>
